<svg viewBox="50.0001 183.7384 312.1906 198.6222" width="5000" height="3181.104748189087" xmlns="http://www.w3.org/2000/svg" xmlns:xlink="http://www.w3.org/1999/xlink" preserveAspectRatio="none"><defs></defs><style>.aBTu93vQEy0filter-floo {flood-color:#822BCF;flood-opacity:0.5;}.aCkv4rtvjScolor {fill:#AB77FF;fill-opacity:1;}.aD6z1nYkhcolor {fill:#AB77FF;fill-opacity:1;}.aD6z1nYkhstrokeColor-str {stroke:#7338D2;stroke-opacity:1;}.aVoyjDDjRlcolors-0 {fill:#AB77FF;fill-opacity:1;}.icon3-str {stroke:#987239;stroke-opacity:1;}</style><g opacity="1" transform="rotate(0 50.0001 335.0814)">
<svg width="312.1906" height="22.5985" x="50.0001" y="335.0814" version="1.1" preserveAspectRatio="none" viewBox="1.8 -28.56 402.28 29.12">
  <g transform="matrix(1 0 0 1 0 0)" class="aD6z1nYkhcolor"><path id="id-D6z1nYkh16" d="M25.08-20L25.08-20Q25.08-18.16 24.36-16.52L24.36-16.52Q23-13.36 19.32-12.20L19.32-12.20Q18.24-11.84 17.32-11.84L17.32-11.84Q14.48-11.84 12.24-13.32L12.24-13.32L12.24-13.72Q15.24-13.64 17.08-15.68L17.08-15.68Q18.68-17.44 18.68-20.28L18.68-20.28Q18.68-23.16 17.30-24.74Q15.92-26.32 13.56-26.32L13.56-26.32L10.88-26.32L10.88-2.92Q10.88-1.88 11.64-1.14Q12.40-0.40 13.44-0.40L13.44-0.40L13.96-0.40L13.96 0L1.80 0L1.80-0.40L2.32-0.40Q3.36-0.40 4.10-1.14Q4.84-1.88 4.88-2.92L4.88-2.92L4.88-25.28Q4.88-26.28 4.12-26.94Q3.36-27.60 2.32-27.60L2.32-27.60L1.80-27.60L1.80-28L15.16-28Q20.04-28 22.52-25.92L22.52-25.92Q25.08-23.72 25.08-20Z M37.36-22.36L37.36-22.36L36.08-22.36L36.08-2.52Q36.08-1.56 36.74-0.98Q37.40-0.40 38.24-0.40L38.24-0.40L38.68-0.40L38.68 0L27.68 0L27.68-0.40L28.16-0.40Q29.04-0.40 29.66-1Q30.28-1.60 30.28-2.48L30.28-2.48L30.28-21.52Q30.28-22.40 29.66-23Q29.04-23.60 28.20-23.60L28.20-23.60L27.68-23.60L27.68-24L39.96-24Q43.56-24 46-22.60L46-22.60Q48.72-21.04 48.72-17.44L48.72-17.44Q48.72-15.12 47.32-13.26Q45.92-11.40 43.16-11L43.16-11Q44.24-10.64 45.30-9.64Q46.36-8.64 47-7.60L47-7.60Q48.28-5.32 49.68-3.42Q51.08-1.52 51.94-0.96Q52.80-0.40 54.04-0.40L54.04-0.40L54.04 0L50.68 0Q47.36 0 45.58-0.80Q43.80-1.60 42.40-3.84L42.40-3.84Q40.24-7.28 39.72-9.28L39.72-9.28Q39.24-10.48 38.58-11.08Q37.92-11.68 37.32-11.76L37.32-11.76L37.32-12.08L38.32-12.08Q41.72-12.12 42.48-16.08L42.48-16.08Q42.64-16.68 42.64-17.12Q42.64-17.56 42.60-18.34Q42.56-19.12 42.10-20.10Q41.64-21.08 40.92-21.52L40.92-21.52Q39.68-22.28 38.36-22.32L38.36-22.32Q37.92-22.36 37.36-22.36Z M79.64-0.40L79.64-0.40L79.96-0.40L79.96 0L68.20 0L68.20-0.40L68.52-0.40Q69.32-0.40 69.68-0.88Q70.04-1.36 70.04-1.76Q70.04-2.16 69.88-2.60L69.88-2.60L68.32-6.28L59.84-6.28L58.24-2.56Q58.08-2.16 58.08-1.74Q58.08-1.32 58.46-0.86Q58.84-0.40 59.64-0.40L59.64-0.40L59.96-0.40L59.96 0L51.96 0L51.96-0.40L52.28-0.40Q53.12-0.40 53.96-0.92Q54.80-1.44 55.32-2.48L55.32-2.48L63.60-20.24Q65.36-24.20 65.44-25.12L65.44-25.12L65.80-25.12L76.52-2.64Q77.04-1.48 77.90-0.94Q78.76-0.40 79.64-0.40ZM64.12-16.20L60.52-7.84L67.64-7.84L64.12-16.20Z M100.52-7.36L99 0L80.16 0L80.16-0.40L80.64-0.40Q81.56-0.40 82.18-1Q82.80-1.60 82.84-2.48L82.84-2.48L82.84-21.52Q82.80-22.40 82.18-23Q81.56-23.60 80.64-23.60L80.64-23.60L80.16-23.60L80.16-24L94.24-24Q95.32-24 96.60-24.20Q97.88-24.40 98.40-24.60L98.40-24.60L98.40-18.24L98-18.24L98-18.60Q98-20.36 97.04-21.36Q96.08-22.36 94.36-22.40L94.36-22.40L88.60-22.40L88.60-12.68L93.16-12.68Q94.52-12.72 95.36-13.60Q96.20-14.48 96.20-15.84L96.20-15.84L96.20-16.12L96.60-16.12L96.60-7.64L96.20-7.64L96.20-7.92Q96.20-9.80 94.80-10.64L94.80-10.64Q94.08-11.08 93.20-11.08L93.20-11.08L88.60-11.08L88.60-1.60L93.40-1.60Q95.88-1.64 97.62-3.14Q99.36-4.64 100.16-7.36L100.16-7.36L100.52-7.36Z M125-18.32L124.60-18.32L124.60-18.68Q124.60-20.40 123.64-21.40Q122.68-22.40 120.96-22.44L120.96-22.44L116.32-22.44L116.32-2.48Q116.36-1.60 117-1Q117.64-0.40 118.52-0.40L118.52-0.40L118.96-0.40L118.96 0L107.92 0L107.92-0.40L108.32-0.40Q109.24-0.40 109.88-1Q110.52-1.60 110.52-2.52L110.52-2.52L110.52-22.44L105.92-22.44Q104.16-22.40 103.20-21.40Q102.24-20.40 102.24-18.68L102.24-18.68L102.24-18.32L101.84-18.32L101.84-24.64Q102.40-24.44 103.70-24.24Q105-24.04 106.04-24.04L106.04-24.04L120.80-24.04Q122.56-24.04 123.70-24.30Q124.84-24.56 125-24.64L125-24.64L125-18.32Z M126.44-12Q126.44-17.76 130.30-21.14Q134.16-24.52 140.58-24.52Q147-24.52 150.88-21.14Q154.76-17.76 154.76-12Q154.76-6.24 150.88-2.86Q147 0.52 140.60 0.52Q134.20 0.52 130.32-2.86Q126.44-6.24 126.44-12ZM132.56-12Q132.56-6.96 134.74-4.02Q136.92-1.08 140.58-1.08Q144.24-1.08 146.42-4.02Q148.60-6.96 148.60-12Q148.60-17.04 146.42-19.98Q144.24-22.92 140.58-22.92Q136.92-22.92 134.74-19.98Q132.56-17.04 132.56-12Z M166.96-22.36L166.96-22.36L165.68-22.36L165.68-2.52Q165.68-1.56 166.34-0.98Q167-0.40 167.84-0.40L167.84-0.40L168.28-0.40L168.28 0L157.28 0L157.28-0.40L157.76-0.40Q158.64-0.40 159.26-1Q159.88-1.60 159.88-2.48L159.88-2.48L159.88-21.52Q159.88-22.40 159.26-23Q158.64-23.60 157.80-23.60L157.80-23.60L157.28-23.60L157.28-24L169.56-24Q173.16-24 175.60-22.60L175.60-22.60Q178.32-21.04 178.32-17.44L178.32-17.44Q178.32-15.12 176.92-13.26Q175.52-11.40 172.76-11L172.76-11Q173.84-10.64 174.90-9.64Q175.96-8.64 176.60-7.60L176.60-7.60Q177.88-5.32 179.28-3.42Q180.68-1.52 181.54-0.96Q182.40-0.40 183.64-0.40L183.64-0.40L183.64 0L180.28 0Q176.96 0 175.18-0.80Q173.40-1.60 172-3.84L172-3.84Q169.84-7.28 169.32-9.28L169.32-9.28Q168.84-10.48 168.18-11.08Q167.52-11.68 166.92-11.76L166.92-11.76L166.92-12.08L167.92-12.08Q171.32-12.12 172.08-16.08L172.08-16.08Q172.24-16.68 172.24-17.12Q172.24-17.56 172.20-18.34Q172.16-19.12 171.70-20.10Q171.24-21.08 170.52-21.52L170.52-21.52Q169.28-22.28 167.96-22.32L167.96-22.32Q167.52-22.36 166.96-22.36Z M183.28 0L183.28-0.40L183.76-0.40Q184.72-0.40 185.40-1.02Q186.08-1.64 186.08-2.52L186.08-2.52L186.08-21.48Q186.08-22.36 185.40-22.98Q184.72-23.60 183.76-23.60L183.76-23.60L183.28-23.60L183.28-24L194.64-24L194.64-23.60L194.16-23.60Q193.24-23.60 192.56-23Q191.88-22.40 191.84-21.52L191.84-21.52L191.84-2.52Q191.88-1.60 192.56-1Q193.24-0.40 194.16-0.40L194.16-0.40L194.64-0.40L194.64 0L183.28 0Z M222.60-0.40L222.60-0.40L222.92-0.40L222.92 0L211.16 0L211.16-0.40L211.48-0.40Q212.28-0.40 212.64-0.88Q213.00-1.36 213.00-1.76Q213.00-2.16 212.84-2.60L212.84-2.60L211.28-6.28L202.80-6.28L201.20-2.56Q201.04-2.16 201.04-1.74Q201.04-1.32 201.42-0.86Q201.80-0.40 202.60-0.40L202.60-0.40L202.92-0.40L202.92 0L194.92 0L194.92-0.40L195.24-0.40Q196.08-0.40 196.92-0.92Q197.76-1.44 198.28-2.48L198.28-2.48L206.56-20.24Q208.32-24.20 208.40-25.12L208.40-25.12L208.76-25.12L219.48-2.64Q220.00-1.48 220.86-0.94Q221.72-0.40 222.60-0.40ZM207.08-16.20L203.48-7.84L210.60-7.84L207.08-16.20Z M240.88-23.60L240.88-24L252.12-24L252.12-23.60L251.44-23.60Q250.52-23.60 249.90-23.04Q249.28-22.48 249.24-21.60L249.24-21.60L249.24-4.12Q249.24-1.64 249.56-0.04L249.56-0.04L249.64 0.52L249.28 0.52L230.92-15.68L230.92-2.44Q230.96-1.56 231.58-0.98Q232.20-0.40 233.12-0.40L233.12-0.40L233.80-0.40L233.80 0L222.60 0L222.60-0.40L223.24-0.40Q224.16-0.40 224.80-0.98Q225.44-1.56 225.44-2.44L225.44-2.44L225.44-20.04Q225.44-22.44 225.12-24L225.12-24L225.04-24.56L225.40-24.52L243.72-8.40L243.72-21.56Q243.72-22.44 243.10-23.02Q242.48-23.60 241.56-23.60L241.56-23.60L240.88-23.60Z M279.84 0.56L279.84 0.56Q273 0.56 268.86-3.38Q264.72-7.32 264.72-14.02Q264.72-20.72 268.86-24.64Q273-28.56 280.08-28.56L280.08-28.56Q283.28-28.56 286.28-27.94Q289.28-27.32 291.12-26.40L291.12-26.40L291.20-19.52L290.84-19.52Q289.80-23.40 287.28-25.14Q284.76-26.88 281.28-26.88L281.28-26.88Q276.44-26.88 273.84-23.42Q271.24-19.96 271.24-13.94Q271.24-7.92 273.62-4.52Q276-1.12 280.36-1.12L280.36-1.12Q283.52-1.12 285.64-2.92L285.64-2.92Q286.68-3.84 287.16-5.08L287.16-5.08L287.16-11.20Q287.16-12.08 286.62-12.54Q286.08-13 285.08-13L285.08-13L284.44-13L284.44-13.40L295.68-13.40L295.68-13L295.08-13Q294.12-13 293.60-12.54Q293.08-12.08 293.08-11.20L293.08-11.20L293.08-4.60Q291.52-2.56 287.92-1Q284.32 0.56 279.84 0.56Z M323.76-24L323.76-23.60L323.20-23.60Q322.44-23.60 321.92-23.14Q321.40-22.68 321.36-21.96L321.36-21.96L321.36-8.72Q321.36-4.40 318.72-1.94Q316.08 0.52 310.86 0.52Q305.64 0.52 302.74-1.88Q299.84-4.28 299.84-8.64L299.84-8.64L299.84-21.92Q299.84-22.64 299.30-23.12Q298.76-23.60 298-23.60L298-23.60L297.44-23.60L297.44-24L307.96-24L307.96-23.60L307.40-23.60Q306.64-23.60 306.12-23.12Q305.60-22.64 305.60-21.92L305.60-21.92L305.60-8.92Q305.60-5.24 307.30-3.16Q309-1.08 312.08-1.08Q315.16-1.08 316.94-3.04Q318.72-5 318.72-8.48L318.72-8.48L318.72-21.92Q318.68-22.68 318.16-23.14Q317.64-23.60 316.88-23.60L316.88-23.60L316.36-23.60L316.36-24L323.76-24Z M350.08-0.40L350.08-0.40L350.40-0.40L350.40 0L338.64 0L338.64-0.40L338.96-0.40Q339.76-0.40 340.12-0.88Q340.48-1.36 340.48-1.76Q340.48-2.16 340.32-2.60L340.32-2.60L338.76-6.28L330.28-6.28L328.68-2.56Q328.52-2.16 328.52-1.74Q328.52-1.32 328.90-0.86Q329.28-0.40 330.08-0.40L330.08-0.40L330.40-0.40L330.40 0L322.40 0L322.40-0.40L322.72-0.40Q323.56-0.40 324.40-0.92Q325.24-1.44 325.76-2.48L325.76-2.48L334.04-20.24Q335.80-24.20 335.88-25.12L335.88-25.12L336.24-25.12L346.96-2.64Q347.48-1.48 348.34-0.94Q349.20-0.40 350.08-0.40ZM334.56-16.20L330.96-7.84L338.08-7.84L334.56-16.20Z M360.56-22.36L360.56-22.36L359.28-22.36L359.28-2.52Q359.28-1.56 359.94-0.98Q360.60-0.40 361.44-0.40L361.44-0.40L361.88-0.40L361.88 0L350.88 0L350.88-0.40L351.36-0.40Q352.24-0.40 352.86-1Q353.48-1.60 353.48-2.48L353.48-2.48L353.48-21.52Q353.48-22.40 352.86-23Q352.24-23.60 351.40-23.60L351.40-23.60L350.88-23.60L350.88-24L363.16-24Q366.76-24 369.20-22.60L369.20-22.60Q371.92-21.04 371.92-17.44L371.92-17.44Q371.92-15.12 370.52-13.26Q369.12-11.40 366.36-11L366.36-11Q367.44-10.64 368.50-9.64Q369.56-8.64 370.20-7.60L370.20-7.60Q371.48-5.32 372.88-3.42Q374.28-1.52 375.14-0.96Q376-0.40 377.24-0.40L377.24-0.40L377.24 0L373.88 0Q370.56 0 368.78-0.80Q367-1.60 365.60-3.84L365.60-3.84Q363.44-7.28 362.92-9.28L362.92-9.28Q362.44-10.48 361.78-11.08Q361.12-11.68 360.52-11.76L360.52-11.76L360.52-12.08L361.52-12.08Q364.92-12.12 365.68-16.08L365.68-16.08Q365.84-16.68 365.84-17.12Q365.84-17.56 365.80-18.34Q365.76-19.12 365.30-20.10Q364.84-21.08 364.12-21.52L364.12-21.52Q362.88-22.28 361.56-22.32L361.56-22.32Q361.12-22.36 360.56-22.36Z M400.44-20.82Q404.08-17.64 404.08-12Q404.08-6.36 400.44-3.18Q396.80 0 390.36 0L390.36 0L376.84 0L376.84-0.40L377.36-0.40Q378.28-0.40 378.92-1.04Q379.56-1.68 379.60-2.56L379.60-2.56L379.60-21.52Q379.52-22.40 378.88-23Q378.24-23.60 377.32-23.60L377.32-23.60L376.84-23.60L376.84-24L390.36-24Q396.80-24 400.44-20.82ZM385.36-1.60L389.88-1.60Q393.64-1.60 395.82-4.36Q398-7.12 398-12Q398-16.88 395.82-19.66Q393.64-22.44 389.88-22.44L389.88-22.44L385.36-22.44L385.36-1.60Z"/></g>
</svg>
</g><g opacity="1" transform="rotate(0 167.3771 183.7384)">
<svg width="77.4366" height="128.5397" x="167.3771" y="183.7384" version="1.1" preserveAspectRatio="none" viewBox="21.465089797973633 2.6339380741119385 57.06982421875 94.73214721679688">
  <g transform="matrix(1 0 0 1 0 0)" class="aVoyjDDjRlcolors-0"><title>escudo romano</title><circle cx="49.99989" cy="50" r="3.4386"></circle><path d="M68.98944,4.94647q-9.4921-.31289-18.98962-.31292-9.496,0-18.9895.31292c-4.90588.16887-7.54517,2.88739-7.54535,7.67473V87.37881c.00012,4.78734,2.63947,7.506,7.54535,7.67473q9.4921.31289,18.9895.31292,9.49622,0,18.98962-.31292c4.90588-.169,7.54523-2.88739,7.54535-7.67473V12.62119C76.53461,7.83391,73.89526,5.11533,68.98944,4.94647ZM71.131,55.85217c0,5.95032-4.13934,13.32355-2.71643,20.05a17.96576,17.96576,0,0,1-5.17419-6.46771c-1.55225-3.75128,2.32837-7.632,1.29352-10.34839-.78412-2.05835-4.16357-2.572-6.68994-2.73181v1.00751a2.48048,2.48048,0,0,1-2.47766,2.47766h-.254l5.19983,7.243.06085.08478-.0484.09247-4.86249,9.296L62.85138,86.977l.27252-.18585.23431-.15985.02948.2821.09387.89716.09381.89716.03027.28967-.26678-.11707-.85748-.37628-.85748-.37628-.27979-.12286.25238-.17212.26324-.1795L54.11792,76.73444l-.06-.08459.0481-.09186,4.86084-9.29138-5.33209-7.42719H50.713V87.53265h.65277l-.15485.25677-.47046.78009-.47046.78-.145.24042-.145-.24042-.4704-.78-.47052-.78009-.15491-.25677h.629V59.83942H46.61517l-5.332,7.42719L46.144,76.558l.048.09186-.05994.08459L38.39026,87.65326l.26318.1795.25244.17212-.27979.1228-.85748.37634-.85754.37634-.26678.117.03033-.28967.09381-.89716.09381-.89716.02954-.2821.23431.15985.27246.18585,7.38928-10.42133-4.86249-9.296-.04834-.09247.06085-.08478,5.19977-7.243h-.50421a2.48048,2.48048,0,0,1-2.47766-2.47766V56.35425c-2.52637.15979-5.90582.67346-6.68994,2.73181-1.03485,2.71643,2.84576,6.59711,1.29352,10.34839a17.96576,17.96576,0,0,1-5.17419,6.46771c1.42291-6.72644-2.71643-14.09967-2.71643-20.05,0-4.85663,8.10565-5.12775,13.287-3.51636v-4.709c-5.1814,1.61139-13.287,1.34027-13.287-3.51636,0-5.95032,4.13934-13.32355,2.71643-20.05a17.96576,17.96576,0,0,1,5.17419,6.46771c1.55225,3.75128-2.32837,7.632-1.29352,10.34839.78412,2.05835,4.16357,2.572,6.68994,2.73181v-.97009a2.48051,2.48051,0,0,1,2.47766-2.47766h.50421l-5.19977-7.243-.06085-.08478.04834-.09253,4.86249-9.296L37.39856,13.023l-.27246.18585-.23431.15979-.02954-.2821-.09381-.89716-.09381-.89709-.03033-.28979.26678.11713.85754.37628.85748.37634.27979.12274-.25244.17218-.26318.1795L46.13214,23.2655l.05994.08459-.048.09186-4.8609,9.29138,5.33209,7.42725h2.89789V12.46729h-.629l.15491-.25677.47052-.78009.4704-.78.145-.24036.145.24036.47046.78.47046.78009.15485.25677H50.713v27.6933H53.6347l5.33215-7.42725L54.106,23.442l-.0481-.09186.06-.08459,7.74182-10.91882-.26324-.1795-.25238-.17218.27979-.12274.85748-.37634.85748-.37628.26678-.11713-.03027.28979-.09381.89709-.09387.89716-.02948.2821-.23431-.15979-.27252-.18585L55.46216,23.44427l4.86249,9.296.0484.09253-.06085.08478-5.19983,7.243h.254A2.48051,2.48051,0,0,1,57.844,42.63824v.97009c2.52637-.15979,5.90582-.67346,6.68994-2.73181,1.03485-2.71643-2.84576-6.59711-1.29352-10.34839a17.96576,17.96576,0,0,1,5.17419-6.46771C66.9917,30.78687,71.131,38.1601,71.131,44.11041c0,4.85663-8.10565,5.12775-13.287,3.51636v4.709C63.02539,50.72443,71.131,50.99554,71.131,55.85217Z"></path><path d="M49.99976,97.36609c-6.34375,0-12.75488-.10547-19.05518-.31348-6.02441-.207-9.47949-3.7334-9.47949-9.67383V12.621c0-5.94043,3.4541-9.46631,9.47705-9.67285,12.647-.41895,25.47168-.41895,38.11328,0h.00293c6.02246.20654,9.47656,3.73242,9.47656,9.67285V87.37878c0,5.94043-3.4541,9.4668-9.47656,9.67383C62.75366,97.26062,56.34253,97.36609,49.99976,97.36609Zm.001-93.73193c-6.35645,0-12.71289.10449-19.0249.313-5.40869.186-8.51074,3.34717-8.51074,8.67383V87.37878c0,5.32715,3.103,8.48828,8.51318,8.67383,12.57666.416,25.46094.416,38.0459,0,5.4082-.18555,8.51074-3.34668,8.51074-8.67383V12.621c0-5.32617-3.10254-8.4873-8.51074-8.67383h0C62.71265,3.73865,56.3562,3.63416,50.00073,3.63416Z"></path><path d="M55.05017,41.20563H44.94958a1.75392,1.75392,0,0,0-1.74878,1.74872V57.04559a1.754,1.754,0,0,0,1.74878,1.74878H55.05017a1.75392,1.75392,0,0,0,1.74872-1.74878V42.95435A1.75386,1.75386,0,0,0,55.05017,41.20563Zm-9.50092,1.32452a.91635.91635,0,1,1-.91638.91638A.91637.91637,0,0,1,45.54926,42.53015Zm0,15.12109a.91635.91635,0,1,1,.91632-.91638A.91638.91638,0,0,1,45.54926,57.65125Zm4.45062-3.307a4.46185,4.46185,0,1,1,4.46191-4.46185A4.46688,4.46688,0,0,1,49.99988,54.34424Zm4.45062,3.307a.91635.91635,0,1,1,.91632-.91638A.91633.91633,0,0,1,54.4505,57.65125Zm0-13.28839a.91635.91635,0,1,1,.91632-.91632A.91632.91632,0,0,1,54.4505,44.36285Z"></path></g>
</svg>
</g><g opacity="1" transform="rotate(0 148.5417 367.9989)">
<svg width="115.1074" height="14.3617" x="148.5417" y="367.9989" version="1.1" preserveAspectRatio="none" viewBox="1.68 -28.76 236.92 29.560000000000002">
  <g transform="matrix(1 0 0 1 0 0)" class="aCkv4rtvjScolor"><path id="id-Ckv4rtvjS10" d="M1.68-0.40L2.20-0.40Q3.24-0.40 3.98-1.14Q4.72-1.88 4.76-2.92L4.76-2.92L4.76-25.20Q4.68-26.24 4.16-26.72L4.16-26.72Q3.20-27.60 2.20-27.60L2.20-27.60L1.68-27.60L1.68-28L17-28Q18.96-28 20.24-28.30Q21.52-28.60 21.80-28.72L21.80-28.72L21.80-21.72L21.40-21.76L21.40-22.20Q21.40-24.68 19.56-25.72L19.56-25.72Q18.68-26.24 17.48-26.28L17.48-26.28L10.76-26.28L10.76-14.64L16.04-14.64Q17.52-14.68 18.48-15.66Q19.44-16.64 19.44-18.08L19.44-18.08L19.44-18.44L19.84-18.44L19.84-9.20L19.44-9.20L19.44-9.52Q19.44-11 18.50-11.96Q17.56-12.92 16.12-12.96L16.12-12.96L10.76-12.96L10.76-1.72L16-1.72Q18.92-1.72 20.90-3.40Q22.88-5.08 23.84-8.16L23.84-8.16L24.24-8.16L22.40 0L1.68 0L1.68-0.40Z M27.24-3.72L27.24-3.72Q27.24-6.60 28.48-8.64L28.48-8.64L28.84-8.64Q28.80-8.32 28.80-8L28.80-8Q28.80-5.24 30.78-3.18Q32.76-1.12 36.20-1.12L36.20-1.12Q38.88-1.12 40.38-2.40Q41.88-3.68 41.88-5.64L41.88-5.64Q41.88-6.80 41.14-7.72Q40.40-8.64 38.68-9.76L38.68-9.76L31.72-14.36Q27.84-16.96 27.84-20.76L27.84-20.76Q27.84-21.16 27.92-21.56L27.92-21.56Q28.16-24.72 30.38-26.64Q32.60-28.56 36.32-28.56L36.32-28.56Q38.52-28.56 41.76-28.16L41.76-28.16L44.28-28.16L43.76-22.28L43.36-22.28Q43.36-24.36 41.82-25.62Q40.28-26.88 37.72-26.88L37.72-26.88Q34.60-26.88 33.20-24.96L33.20-24.96Q32.48-24.04 32.48-23.12Q32.48-22.20 32.84-21.56L32.84-21.56Q33.40-20.52 35.28-19.32L35.28-19.32L42.92-14.36Q46.52-12 46.52-8.20L46.52-8.20Q46.52-3.96 43.62-1.70Q40.72 0.56 35.92 0.56L35.92 0.56Q33.20 0.56 30.90-0.10Q28.60-0.76 27.52-1.88L27.52-1.88Q27.24-2.64 27.24-3.72Z M70.08-26.36L64.72-26.36L64.72-2.88Q64.76-1.84 65.50-1.12Q66.24-0.40 67.28-0.40L67.28-0.40L67.76-0.40L67.80 0L55.64 0L55.64-0.40L56.16-0.40Q57.16-0.40 57.90-1.12Q58.64-1.84 58.72-2.84L58.72-2.84L58.72-26.36L53.32-26.36Q51.48-26.32 50.40-25.20Q49.32-24.08 49.32-22.28L49.32-22.28L49.32-21.80L48.92-21.80L48.92-28.76Q50.56-28.08 53.64-28.04L53.64-28.04L69.76-28.04Q71-28.04 72.46-28.28Q73.92-28.52 74.48-28.76L74.48-28.76L74.48-21.80L74.08-21.80L74.08-22.28Q74.08-24.76 72.20-25.80L72.20-25.80Q71.32-26.32 70.08-26.36L70.08-26.36Z M77.82-0.44Q76.96 0.40 75.76 0.40Q74.56 0.40 73.72-0.44Q72.88-1.28 72.88-2.48Q72.88-3.68 73.72-4.54Q74.56-5.40 75.76-5.40Q76.96-5.40 77.82-4.54Q78.68-3.68 78.68-2.48Q78.68-1.28 77.82-0.44Z M128.08-0.40L128.08-0.40L128.72-0.40L128.72 0L116.72 0L116.72-0.36L117.32-0.36Q118.00-0.40 118.48-0.92Q118.96-1.44 118.88-2.08L118.88-2.08L117.32-16.60L109.80-3.64Q108.32-1.16 108.28 0.80L108.28 0.80L107.88 0.80L97.60-16.48L96.04-2.08Q95.96-1.44 96.44-0.90Q96.92-0.36 97.60-0.36L97.60-0.36L98.20-0.36L98.20 0L89.84 0L89.84-0.40L90.48-0.40Q91.60-0.40 92.42-1.08Q93.24-1.76 93.40-2.92L93.40-2.92L96.72-28.56L97.08-28.56L109.48-8.16L121.40-28.56L121.76-28.56L125.16-2.92Q125.36-1.76 126.18-1.08Q127-0.40 128.08-0.40Z M166.20-0.40L166.20-0.40L166.84-0.40L166.84 0L154.84 0L154.84-0.36L155.44-0.36Q156.12-0.40 156.60-0.92Q157.08-1.44 157-2.08L157-2.08L155.44-16.60L147.92-3.64Q146.44-1.16 146.40 0.80L146.40 0.80L146 0.80L135.72-16.48L134.16-2.08Q134.08-1.44 134.56-0.90Q135.04-0.36 135.72-0.36L135.72-0.36L136.32-0.36L136.32 0L127.96 0L127.96-0.40L128.60-0.40Q129.72-0.40 130.54-1.08Q131.36-1.76 131.52-2.92L131.52-2.92L134.84-28.56L135.20-28.56L147.60-8.16L159.52-28.56L159.88-28.56L163.28-2.92Q163.48-1.76 164.30-1.08Q165.12-0.40 166.20-0.40Z M183.04-0.40L183.56-0.40Q184.40-0.40 184.92-1.20L184.92-1.20Q185.16-1.64 185.16-2.04Q185.16-2.44 184.92-2.84L184.92-2.84L179.32-11.56L173.44-2.88Q173.20-2.48 173.20-2.06Q173.20-1.64 173.44-1.24L173.44-1.24Q174-0.40 174.84-0.40L174.84-0.40L175.36-0.40L175.36 0L165.48 0L165.48-0.40L166.04-0.40Q168.28-0.40 170-2.64L170-2.64L177.88-13.80L170.48-25.24Q169.80-26.24 168.72-26.92Q167.64-27.60 166.44-27.60L166.44-27.60L165.88-27.60L165.88-28L179.48-28L179.48-27.60L178.96-27.60Q178.12-27.60 177.60-26.80L177.60-26.80Q177.36-26.36 177.36-25.94Q177.36-25.52 177.56-25.16L177.56-25.16L182.56-17.44L187.48-25.12Q187.72-25.52 187.72-25.94Q187.72-26.36 187.44-26.76L187.44-26.76Q186.92-27.60 186.08-27.60L186.08-27.60L185.56-27.60L185.56-28L195.40-28L195.40-27.60L194.84-27.60Q193.64-27.60 192.60-26.94Q191.56-26.28 190.84-25.28L190.84-25.28L184.04-15.16L192.08-2.72Q192.76-1.72 193.86-1.06Q194.96-0.40 196.12-0.40L196.12-0.40L196.68-0.40L196.68 0L183.04 0L183.04-0.40Z M212.20-0.40L212.72-0.40Q213.56-0.40 214.08-1.20L214.08-1.20Q214.32-1.64 214.32-2.04Q214.32-2.44 214.08-2.84L214.08-2.84L208.48-11.56L202.60-2.88Q202.36-2.48 202.36-2.06Q202.36-1.64 202.60-1.24L202.60-1.24Q203.16-0.40 204-0.40L204-0.40L204.52-0.40L204.52 0L194.64 0L194.64-0.40L195.20-0.40Q197.44-0.40 199.16-2.64L199.16-2.64L207.04-13.80L199.64-25.24Q198.96-26.24 197.88-26.92Q196.80-27.60 195.60-27.60L195.60-27.60L195.04-27.60L195.04-28L208.64-28L208.64-27.60L208.12-27.60Q207.28-27.60 206.76-26.80L206.76-26.80Q206.52-26.36 206.52-25.94Q206.52-25.52 206.72-25.16L206.72-25.16L211.72-17.44L216.64-25.12Q216.88-25.52 216.88-25.94Q216.88-26.36 216.60-26.76L216.60-26.76Q216.08-27.60 215.24-27.60L215.24-27.60L214.72-27.60L214.72-28L224.56-28L224.56-27.60L224-27.60Q222.80-27.60 221.76-26.94Q220.72-26.28 220-25.28L220-25.28L213.20-15.16L221.24-2.72Q221.92-1.72 223.02-1.06Q224.12-0.40 225.28-0.40L225.28-0.40L225.84-0.40L225.84 0L212.20 0L212.20-0.40Z M226.44-0.40L226.96-0.40Q228-0.40 228.74-1.14Q229.48-1.88 229.52-2.92L229.52-2.92L229.52-25.12Q229.48-26.16 228.74-26.88Q228-27.60 226.96-27.60L226.96-27.60L226.44-27.60L226.44-28L238.60-28L238.56-27.60L238.08-27.60Q237.04-27.60 236.28-26.88Q235.52-26.16 235.52-25.12L235.52-25.12L235.52-2.92Q235.52-1.88 236.28-1.14Q237.04-0.40 238.08-0.40L238.08-0.40L238.56-0.40L238.60 0L226.44 0L226.44-0.40Z"/></g>
</svg>
</g></svg>